<svg width="24" height="24" viewBox="0 0 24 24" fill="none" xmlns="http://www.w3.org/2000/svg">
<g clip-path="url(#clip0_855_2241)">
<path fill-rule="evenodd" clip-rule="evenodd" d="M8.02806 0.302124C6.70724 0.302124 5.44057 0.826809 4.50662 1.76075L0 6.26735V8.33017C0 9.78756 0.626014 11.0987 1.62381 12.0094C0.626014 12.9201 0 14.2313 0 15.6887V17.7515L4.50662 22.2581C5.44057 23.1921 6.70724 23.7168 8.02806 23.7168C9.48544 23.7168 10.7966 23.0908 11.7073 22.0929C12.618 23.0908 13.9292 23.7168 15.3866 23.7168C16.7074 23.7168 17.9741 23.1921 18.908 22.2581L23.4146 17.7515V15.6887C23.4146 14.2313 22.7886 12.9201 21.7908 12.0094C22.7886 11.0987 23.4146 9.78756 23.4146 8.33017V6.26735L18.908 1.76075C17.9741 0.826809 16.7074 0.302124 15.3866 0.302124C13.9292 0.302124 12.618 0.928136 11.7073 1.92593C10.7966 0.928136 9.48544 0.302124 8.02806 0.302124ZM15.0783 12.0094C15.0222 11.9582 14.9671 11.9056 14.9131 11.8516L11.7073 8.6458L8.5015 11.8516C8.44753 11.9056 8.39245 11.9582 8.33631 12.0094C8.39245 12.0607 8.44753 12.1133 8.5015 12.1672L11.7073 15.3731L14.9131 12.1672C14.9671 12.1133 15.0222 12.0607 15.0783 12.0094ZM13.0081 17.7515V18.7367C13.0081 20.0503 14.073 21.1152 15.3866 21.1152C16.0174 21.1152 16.6223 20.8646 17.0684 20.4185L20.813 16.6739V15.6887C20.813 14.3751 19.7481 13.3102 18.4346 13.3102C17.8038 13.3102 17.1988 13.5608 16.7528 14.0069L13.0081 17.7515ZM10.4065 17.7515L6.66187 14.0069C6.21583 13.5608 5.61087 13.3102 4.98007 13.3102C3.66649 13.3102 2.60162 14.3751 2.60162 15.6887V16.6739L6.34624 20.4185C6.79229 20.8646 7.39727 21.1152 8.02806 21.1152C9.34162 21.1152 10.4065 20.0503 10.4065 18.7367V17.7515ZM10.4065 5.28219V6.26735L6.66187 10.012C6.21583 10.458 5.61087 10.7086 4.98007 10.7086C3.66649 10.7086 2.60162 9.64373 2.60162 8.33017V7.345L6.34624 3.60038C6.79229 3.15434 7.39727 2.90375 8.02806 2.90375C9.34162 2.90375 10.4065 3.96861 10.4065 5.28219ZM16.7528 10.012L13.0081 6.26735V5.28219C13.0081 3.96861 14.073 2.90375 15.3866 2.90375C16.0174 2.90375 16.6223 3.15434 17.0684 3.60038L20.813 7.345V8.33017C20.813 9.64373 19.7481 10.7086 18.4346 10.7086C17.8038 10.7086 17.1988 10.458 16.7528 10.012Z" fill="#FF630B"/>
</g>
<defs>
<clipPath id="clip0_855_2241">
<rect width="23.4146" height="24" fill="white"/>
</clipPath>
</defs>
</svg>
