<svg width="24" height="24" viewBox="0 0 24 24" fill="none" xmlns="http://www.w3.org/2000/svg">
<g clip-path="url(#clip0_746_3061)">
<path d="M23.9672 12.8999H19.6804C15.9359 12.8999 12.9004 15.9354 12.9004 19.6799V23.9667C18.8103 23.5284 23.5289 18.8098 23.9672 12.8999Z" fill="#775732"/>
<path d="M11.1 23.9667V19.6799C11.1 15.9354 8.06446 12.8999 4.31996 12.8999H0.0332031C0.471403 18.8098 5.19002 23.5284 11.1 23.9667Z" fill="#775732"/>
<path d="M23.9672 11.0999C23.5289 5.1899 18.8103 0.471282 12.9004 0.0330811V4.31984C12.9004 8.06434 15.9359 11.0999 19.6804 11.0999H23.9672Z" fill="#775732"/>
<path d="M11.1 0.0330811C5.19002 0.471282 0.471403 5.1899 0.0332031 11.0999H4.31996C8.06446 11.0999 11.1 8.06434 11.1 4.31984V0.0330811Z" fill="#775732"/>
<path d="M8.15039 11.9999C9.81389 11.1687 11.1696 9.81304 12.0007 8.14954C12.8319 9.81304 14.1875 11.1687 15.8511 11.9999C14.1875 12.831 12.8319 14.1867 12.0007 15.8502C11.1696 14.1867 9.81389 12.831 8.15039 11.9999Z" fill="#CA9352"/>
</g>
<defs>
<clipPath id="clip0_746_3061">
<rect width="24" height="24" fill="white"/>
</clipPath>
</defs>
</svg>
