<svg width="24" height="24" viewBox="0 0 24 24" fill="none" xmlns="http://www.w3.org/2000/svg">
<g clip-path="url(#clip0_746_3039)">
<path fill-rule="evenodd" clip-rule="evenodd" d="M6 0C9.31368 0 12 2.68629 12 6V0H18C21.3137 0 24 2.68629 24 6C24 9.31368 21.3137 12 18 12C21.3137 12 24 14.6863 24 18C24 19.6454 23.3377 21.1361 22.2651 22.22L22.2427 22.2427L22.2227 22.2625C21.1385 23.3366 19.6468 24 18 24C16.3645 24 14.8817 23.3456 13.7994 22.2843C13.7854 22.2705 13.7713 22.2566 13.7573 22.2427C13.7442 22.2295 13.7311 22.2163 13.7181 22.2031C12.6554 21.1205 12 19.6368 12 18C12 21.3137 9.31368 24 6 24C2.68629 24 0 21.3137 0 18V12H6C2.68629 12 0 9.31368 0 6C0 2.68629 2.68629 0 6 0ZM10.8 6C10.8 8.65098 8.65098 10.8 6 10.8V1.2C8.65098 1.2 10.8 3.34903 10.8 6ZM22.8 18C22.8 15.349 20.651 13.2 18 13.2C15.349 13.2 13.2 15.349 13.2 18H22.8ZM1.2 13.2V18C1.2 20.651 3.34903 22.8 6 22.8C8.65098 22.8 10.8 20.651 10.8 18V13.2H1.2ZM13.2 10.8V1.2H18C20.651 1.2 22.8 3.34903 22.8 6C22.8 8.65098 20.651 10.8 18 10.8H13.2Z" fill="#5417D7"/>
</g>
<defs>
<clipPath id="clip0_746_3039">
<rect width="24" height="24" fill="white"/>
</clipPath>
</defs>
</svg>
