<svg width="24" height="25" viewBox="0 0 24 25" fill="none" xmlns="http://www.w3.org/2000/svg">
<path d="M12 23.3691C6.443 22.1341 2 16.8911 2 11.3691V5.36914L12 1.36914L22 5.36914V11.3691C22 16.8931 17.557 22.1341 12 23.3691ZM4 6.36914V11.3691C4.05715 13.6813 4.87036 15.911 6.31518 17.717C7.75999 19.523 9.75681 20.8058 12 21.3691C14.2432 20.8058 16.24 19.523 17.6848 17.717C19.1296 15.911 19.9429 13.6813 20 11.3691V6.36914L12 3.36914L4 6.36914Z" fill="white"/>
<path d="M12 11.3691C13.3807 11.3691 14.5 10.2499 14.5 8.86914C14.5 7.48843 13.3807 6.36914 12 6.36914C10.6193 6.36914 9.5 7.48843 9.5 8.86914C9.5 10.2499 10.6193 11.3691 12 11.3691Z" fill="white"/>
<path d="M7 15.3691C7.49289 16.2673 8.21559 17.0184 9.09414 17.5456C9.97269 18.0727 10.9755 18.3569 12 18.3691C13.0245 18.3569 14.0273 18.0727 14.9059 17.5456C15.7844 17.0184 16.5071 16.2673 17 15.3691C16.975 13.4731 13.658 12.3691 12 12.3691C10.333 12.3691 7.025 13.4731 7 15.3691Z" fill="white"/>
</svg>
