<svg width="18" height="19" viewBox="0 0 18 19" fill="none" xmlns="http://www.w3.org/2000/svg">
    <path
        d="M3.37882 0.532166C2.48426 0.532166 1.62633 0.88753 0.993777 1.52008C0.361224 2.15264 0.00585938 3.01056 0.00585938 3.90513V12.8997C0.00585938 13.7943 0.361224 14.6522 0.993777 15.2847C1.62633 15.9173 2.48426 16.2727 3.37882 16.2727H7.42638C7.24252 15.9133 7.09452 15.5367 6.98452 15.1483H3.37882C2.78245 15.1483 2.21049 14.9114 1.78879 14.4897C1.36709 14.068 1.13018 13.4961 1.13018 12.8997V3.90513C1.13018 3.30875 1.36709 2.7368 1.78879 2.3151C2.21049 1.8934 2.78245 1.65649 3.37882 1.65649H12.3734C12.9698 1.65649 13.5417 1.8934 13.9634 2.3151C14.3851 2.7368 14.622 3.30875 14.622 3.90513V7.51083C15.0144 7.62213 15.3899 7.76942 15.7464 7.95268V3.90513C15.7464 3.01056 15.391 2.15264 14.7584 1.52008C14.1259 0.88753 13.268 0.532166 12.3734 0.532166H3.37882ZM7.1498 5.14638C7.25535 5.04082 7.31466 4.89765 7.31466 4.74837C7.31466 4.59909 7.25535 4.45592 7.1498 4.35036C7.04424 4.2448 6.90107 4.1855 6.75179 4.1855C6.6025 4.1855 6.45933 4.2448 6.35378 4.35036L4.76623 5.9379L4.31988 5.5309C4.20897 5.4361 4.06556 5.38814 3.91994 5.39714C3.77433 5.40614 3.63791 5.4714 3.53953 5.57913C3.44114 5.68686 3.38849 5.82862 3.3927 5.97445C3.39691 6.12029 3.45765 6.25877 3.56209 6.36065L4.40533 7.13081C4.51217 7.22808 4.65237 7.28048 4.79682 7.27713C4.94127 7.27378 5.07889 7.21494 5.18111 7.11282L7.14867 5.14525L7.1498 5.14638ZM7.1498 9.97196C7.20215 10.0242 7.24368 10.0862 7.27202 10.1545C7.30036 10.2228 7.31495 10.296 7.31495 10.37C7.31495 10.4439 7.30036 10.5171 7.27202 10.5854C7.24368 10.6537 7.20215 10.7158 7.1498 10.768L5.18223 12.7355C5.07982 12.8378 4.94188 12.8967 4.79716 12.8998C4.65244 12.903 4.51209 12.8502 4.40533 12.7524L3.56209 11.9823C3.45765 11.8804 3.39691 11.7419 3.3927 11.5961C3.38849 11.4502 3.44114 11.3085 3.53953 11.2007C3.63791 11.093 3.77433 11.0277 3.91994 11.0187C4.06556 11.0097 4.20897 11.0577 4.31988 11.1525L4.76623 11.5606L6.35378 9.97196C6.406 9.91961 6.46803 9.87808 6.53633 9.84974C6.60463 9.8214 6.67784 9.80681 6.75179 9.80681C6.82573 9.80681 6.89895 9.8214 6.96724 9.84974C7.03554 9.87808 7.09758 9.91961 7.1498 9.97196ZM8.43827 5.59161C8.43827 5.44252 8.49749 5.29953 8.60292 5.1941C8.70834 5.08868 8.85133 5.02945 9.00043 5.02945H11.8112C11.9603 5.02945 12.1033 5.08868 12.2087 5.1941C12.3142 5.29953 12.3734 5.44252 12.3734 5.59161C12.3734 5.7407 12.3142 5.88369 12.2087 5.98912C12.1033 6.09454 11.9603 6.15377 11.8112 6.15377H9.00043C8.85133 6.15377 8.70834 6.09454 8.60292 5.98912C8.49749 5.88369 8.43827 5.7407 8.43827 5.59161ZM17.995 13.4619C17.995 14.8037 17.4619 16.0906 16.5131 17.0394C15.5643 17.9883 14.2774 18.5213 12.9356 18.5213C11.5937 18.5213 10.3068 17.9883 9.35798 17.0394C8.40915 16.0906 7.87611 14.8037 7.87611 13.4619C7.87611 12.12 8.40915 10.8331 9.35798 9.88429C10.3068 8.93546 11.5937 8.40241 12.9356 8.40241C14.2774 8.40241 15.5643 8.93546 16.5131 9.88429C17.4619 10.8331 17.995 12.12 17.995 13.4619ZM13.4977 11.2132C13.4977 11.0641 13.4385 10.9211 13.3331 10.8157C13.2276 10.7103 13.0846 10.6511 12.9356 10.6511C12.7865 10.6511 12.6435 10.7103 12.538 10.8157C12.4326 10.9211 12.3734 11.0641 12.3734 11.2132V12.8997H10.6869C10.5378 12.8997 10.3948 12.9589 10.2894 13.0643C10.184 13.1698 10.1247 13.3128 10.1247 13.4619C10.1247 13.611 10.184 13.7539 10.2894 13.8594C10.3948 13.9648 10.5378 14.024 10.6869 14.024H12.3734V15.7105C12.3734 15.8596 12.4326 16.0026 12.538 16.108C12.6435 16.2134 12.7865 16.2727 12.9356 16.2727C13.0846 16.2727 13.2276 16.2134 13.3331 16.108C13.4385 16.0026 13.4977 15.8596 13.4977 15.7105V14.024H15.1842C15.3333 14.024 15.4763 13.9648 15.5817 13.8594C15.6871 13.7539 15.7464 13.611 15.7464 13.4619C15.7464 13.3128 15.6871 13.1698 15.5817 13.0643C15.4763 12.9589 15.3333 12.8997 15.1842 12.8997H13.4977V11.2132Z"
        fill="white" />
</svg>