<svg width="22" height="23" viewBox="0 0 22 23" fill="none" xmlns="http://www.w3.org/2000/svg">
    <path
        d="M8.26837 2.97218L3.32754 6.82218C2.50254 7.46384 1.83337 8.82967 1.83337 9.86551V16.658C1.83337 18.7847 3.56587 20.5263 5.69254 20.5263H16.3075C18.4342 20.5263 20.1667 18.7847 20.1667 16.6672V9.99384C20.1667 8.88467 19.4242 7.46384 18.5167 6.83134L12.8517 2.86218C11.5684 1.96384 9.50587 2.00968 8.26837 2.97218Z"
        stroke="#003C4D" stroke-width="1.5" stroke-linecap="round" stroke-linejoin="round" />
    <path
        d="M9.625 16.8689H12.375C13.8875 16.8689 15.125 15.6314 15.125 14.1189V11.3689C15.125 9.8564 13.8875 8.6189 12.375 8.6189H9.625C8.1125 8.6189 6.875 9.8564 6.875 11.3689V14.1189C6.875 15.6314 8.1125 16.8689 9.625 16.8689Z"
        stroke="#003C4D" stroke-width="1.5" stroke-linecap="round" stroke-linejoin="round" />
    <path d="M11 8.6189V16.8689" stroke="#003C4D" stroke-width="1.5" stroke-linecap="round"
        stroke-linejoin="round" />
    <path d="M6.875 12.7439H15.125" stroke="#003C4D" stroke-width="1.5" stroke-linecap="round"
        stroke-linejoin="round" />
</svg>