<svg width="24" height="25" viewBox="0 0 24 25" fill="none" xmlns="http://www.w3.org/2000/svg">
<path d="M11.5 22.5267C9.96667 22.5267 8.66667 21.9934 7.6 20.9267C6.53333 19.8601 6 18.5601 6 17.0267V6.52673C6 5.42673 6.39167 4.48507 7.175 3.70173C7.95833 2.9184 8.9 2.52673 10 2.52673C11.1 2.52673 12.0417 2.9184 12.825 3.70173C13.6083 4.48507 14 5.42673 14 6.52673V16.0267C14 16.7267 13.7583 17.3184 13.275 17.8017C12.7917 18.2851 12.2 18.5267 11.5 18.5267C10.8 18.5267 10.2083 18.2851 9.725 17.8017C9.24167 17.3184 9 16.7267 9 16.0267V7.27673C9 7.06007 9.071 6.88107 9.213 6.73973C9.355 6.5984 9.534 6.5274 9.75 6.52673C9.96667 6.52673 10.1457 6.59773 10.287 6.73973C10.4283 6.88173 10.4993 7.06073 10.5 7.27673V16.0267C10.5 16.3101 10.596 16.5477 10.788 16.7397C10.98 16.9317 11.2173 17.0274 11.5 17.0267C11.7833 17.0267 12.021 16.9307 12.213 16.7387C12.405 16.5467 12.5007 16.3094 12.5 16.0267V6.52673C12.5 5.82673 12.2583 5.23507 11.775 4.75173C11.2917 4.2684 10.7 4.02673 10 4.02673C9.3 4.02673 8.70833 4.2684 8.225 4.75173C7.74167 5.23507 7.5 5.82673 7.5 6.52673V17.0267C7.5 18.1267 7.89167 19.0684 8.675 19.8517C9.45833 20.6351 10.4 21.0267 11.5 21.0267C12.6 21.0267 13.5417 20.6351 14.325 19.8517C15.1083 19.0684 15.5 18.1267 15.5 17.0267V7.27673C15.5 7.06007 15.571 6.88107 15.713 6.73973C15.855 6.5984 16.034 6.5274 16.25 6.52673C16.4667 6.52673 16.6457 6.59773 16.787 6.73973C16.9283 6.88173 16.9993 7.06073 17 7.27673V17.0267C17 18.5601 16.4667 19.8601 15.4 20.9267C14.3333 21.9934 13.0333 22.5267 11.5 22.5267Z" fill="#003C4D"/>
</svg>
