<svg width="20" height="21" viewBox="0 0 20 21" fill="none" xmlns="http://www.w3.org/2000/svg">
<path d="M9.95 16.5267C10.3 16.5267 10.596 16.4057 10.838 16.1637C11.08 15.9217 11.2007 15.6261 11.2 15.2767C11.2 14.9267 11.0793 14.6307 10.838 14.3887C10.5967 14.1467 10.3007 14.0261 9.95 14.0267C9.6 14.0267 9.30433 14.1477 9.063 14.3897C8.82167 14.6317 8.70067 14.9274 8.7 15.2767C8.7 15.6267 8.821 15.9227 9.063 16.1647C9.305 16.4067 9.60067 16.5274 9.95 16.5267ZM10 20.5267C8.61667 20.5267 7.31667 20.2641 6.1 19.7387C4.88333 19.2134 3.825 18.5011 2.925 17.6017C2.025 16.7017 1.31267 15.6434 0.788 14.4267C0.263333 13.2101 0.000666667 11.9101 0 10.5267C0 9.1434 0.262667 7.8434 0.788 6.62673C1.31333 5.41007 2.02567 4.35173 2.925 3.45173C3.825 2.55173 4.88333 1.8394 6.1 1.31473C7.31667 0.790067 8.61667 0.5274 10 0.526733C11.3833 0.526733 12.6833 0.7894 13.9 1.31473C15.1167 1.84007 16.175 2.5524 17.075 3.45173C17.975 4.35173 18.6877 5.41007 19.213 6.62673C19.7383 7.8434 20.0007 9.1434 20 10.5267C20 11.9101 19.7373 13.2101 19.212 14.4267C18.6867 15.6434 17.9743 16.7017 17.075 17.6017C16.175 18.5017 15.1167 19.2144 13.9 19.7397C12.6833 20.2651 11.3833 20.5274 10 20.5267ZM10 18.5267C12.2333 18.5267 14.125 17.7517 15.675 16.2017C17.225 14.6517 18 12.7601 18 10.5267C18 8.2934 17.225 6.40173 15.675 4.85173C14.125 3.30173 12.2333 2.52673 10 2.52673C7.76667 2.52673 5.875 3.30173 4.325 4.85173C2.775 6.40173 2 8.2934 2 10.5267C2 12.7601 2.775 14.6517 4.325 16.2017C5.875 17.7517 7.76667 18.5267 10 18.5267ZM10.1 6.22673C10.5167 6.22673 10.8793 6.36007 11.188 6.62673C11.4967 6.8934 11.6507 7.22673 11.65 7.62673C11.65 7.9934 11.5377 8.3184 11.313 8.60173C11.0883 8.88507 10.834 9.15173 10.55 9.40173C10.1667 9.73507 9.82933 10.1017 9.538 10.5017C9.24667 10.9017 9.10067 11.3517 9.1 11.8517C9.1 12.0851 9.18767 12.2811 9.363 12.4397C9.53833 12.5984 9.74233 12.6774 9.975 12.6767C10.225 12.6767 10.4377 12.5934 10.613 12.4267C10.7883 12.2601 10.9007 12.0517 10.95 11.8017C11.0167 11.4517 11.1667 11.1391 11.4 10.8637C11.6333 10.5884 11.8833 10.3261 12.15 10.0767C12.5333 9.71007 12.8627 9.31007 13.138 8.87673C13.4133 8.4434 13.5507 7.96007 13.55 7.42673C13.55 6.57673 13.204 5.88107 12.512 5.33973C11.82 4.7984 11.016 4.5274 10.1 4.52673C9.46667 4.52673 8.86267 4.66007 8.288 4.92673C7.71333 5.1934 7.27567 5.60173 6.975 6.15173C6.85833 6.35173 6.82067 6.5644 6.862 6.78973C6.90333 7.01507 7.016 7.18573 7.2 7.30173C7.43333 7.43507 7.675 7.47673 7.925 7.42673C8.175 7.37673 8.38333 7.23507 8.55 7.00173C8.73333 6.75173 8.96267 6.56007 9.238 6.42673C9.51333 6.2934 9.80067 6.22673 10.1 6.22673Z" fill="#003C4D"/>
</svg>
