<svg width="398" height="289" viewBox="0 0 398 289" fill="none" xmlns="http://www.w3.org/2000/svg">
    <path
        d="M89.3486 0L31.965 63.9392L102.112 116.649C98.1336 77.7795 93.9897 38.9105 89.3486 0ZM222.282 7.62463L197.254 9.28216H197.171L198.331 28.7167C208.442 28.3852 218.884 30.0427 229.493 33.7721L234.217 33.4406L222.282 7.62463ZM187.06 9.77942L162.28 11.3541L154.324 38.8276L159.379 38.4132C168.744 33.4406 178.358 30.4571 188.22 29.2139L187.226 9.77942H187.06ZM237.034 42.9714L199.243 45.5406H199.16L202.475 102.062C224.106 100.985 245.902 103.968 267.947 110.516L237.034 42.9714ZM188.717 45.955L152.335 48.4413L140.235 87.3103L170.816 106.04C177.778 104.466 184.739 103.305 191.701 102.642L188.8 45.955H188.717ZM28.708 75.9562L0.911255 235.742L110.233 239.057C106.918 203.669 106.753 168.281 103.189 132.975C78.2432 114.411 53.4549 95.0178 28.708 75.9562ZM123.825 90.0452L125.566 238.145L198.745 239.057L190.375 132.478L123.825 90.0452ZM243.499 117.726L258.334 142.257L326.955 209.139L385.798 205.989L243.499 117.726ZM223.608 125.848L228.332 146.733L271.677 227.123L329.773 229.278L223.608 125.848ZM204.215 128.666L214.741 244.112L258.748 237.317L204.215 128.666ZM396.654 217.426L288.003 251.323L286.926 264.417L397.069 229.278L396.654 217.426ZM277.064 250.825L263.638 251.074L260.903 258.616C178.026 265.163 102.692 267.815 21.6635 266.821L32.454 277.926C37.5178 280.992 48.8553 281.407 49.8 288.7H270.931C273.997 277.677 275.323 261.848 277.064 250.825Z"
        fill="white" />
</svg>