<svg width="500" height="83" viewBox="0 0 500 83" fill="none" xmlns="http://www.w3.org/2000/svg">
    <path
        d="M42.4504 82.4359C18.285 82.4359 0.160889 65.6149 0.160889 41.5679C0.160889 17.521 18.285 0.699951 42.4504 0.699951C66.6158 0.699951 84.6214 17.521 84.6214 41.5679C84.6214 65.6149 66.6158 82.4359 42.4504 82.4359ZM42.4504 64.4303C55.4807 64.4303 63.8913 54.3614 63.8913 41.5679C63.8913 28.656 55.4807 18.7056 42.4504 18.7056C29.42 18.7056 20.891 28.656 20.891 41.5679C20.891 54.3614 29.42 64.4303 42.4504 64.4303Z"
        fill="white" />
    <path
        d="M151.269 81.0144H133.026V74.1439C129.473 78.1714 122.957 82.4359 113.244 82.4359C100.332 82.4359 94.409 74.9731 94.409 64.5488V23.7992H112.651V56.9675C112.651 63.9565 116.205 66.3256 122.128 66.3256C127.34 66.3256 130.894 63.4826 133.026 60.7581V23.7992H151.269V81.0144Z"
        fill="white" />
    <path
        d="M182.755 81.0144H164.512V23.7992H182.755V30.7883C186.545 26.1684 193.89 22.2593 200.642 22.2593V39.7911C199.576 39.4357 198.036 39.3172 196.14 39.3172C191.402 39.3172 185.124 41.331 182.755 44.5294V81.0144Z"
        fill="white" />
    <path
        d="M299.199 81.0144H281.075V46.1878C281.075 41.8048 278.942 38.488 273.493 38.488C268.518 38.488 264.964 41.6864 263.187 44.0555V81.0144H244.945V46.1878C244.945 41.8048 242.931 38.488 237.482 38.488C232.507 38.488 229.072 41.6864 227.176 44.0555V81.0144H208.934V23.7992H227.176V30.7883C229.664 27.4714 237.008 22.3778 246.011 22.3778C254.303 22.3778 259.871 25.813 262.24 32.5651C265.557 27.5899 273.019 22.3778 282.022 22.3778C292.565 22.3778 299.199 27.8268 299.199 39.5541V81.0144Z"
        fill="white" />
    <path
        d="M364.587 81.0144H346.345V75.3284C342.791 79.5929 335.921 82.4359 328.576 82.4359C319.81 82.4359 308.912 76.3946 308.912 63.6011C308.912 49.7415 319.81 45.1217 328.576 45.1217C336.158 45.1217 342.91 47.6093 346.345 51.8738V46.1878C346.345 41.2126 342.08 37.7773 334.736 37.7773C329.05 37.7773 323.364 40.028 318.744 43.9371L311.992 31.2621C319.337 24.9838 329.169 22.3778 337.934 22.3778C351.676 22.3778 364.587 27.4714 364.587 45.2401V81.0144ZM336.158 70.4717C340.185 70.4717 344.45 69.0502 346.345 66.3256V61.2319C344.45 58.5074 340.185 57.2044 336.158 57.2044C331.419 57.2044 327.036 59.3366 327.036 63.838C327.036 68.3394 331.419 70.4717 336.158 70.4717Z"
        fill="white" />
    <path
        d="M434.452 81.0144H416.328V74.3808C411.589 79.8298 405.785 82.4359 399.388 82.4359C385.292 82.4359 374.157 71.7747 374.157 52.3476C374.157 33.6313 385.055 22.3778 399.388 22.3778C405.666 22.3778 411.826 24.8654 416.328 30.5513V2.00299H434.452V81.0144ZM405.311 66.3256C409.22 66.3256 413.958 64.1934 416.328 61.1135V43.5817C413.958 40.5018 409.22 38.488 405.311 38.488C398.085 38.488 392.755 43.8186 392.755 52.3476C392.755 60.8766 398.085 66.3256 405.311 66.3256Z"
        fill="white" />
    <path
        d="M499.819 81.0144H481.577V75.3284C478.023 79.5929 471.152 82.4359 463.808 82.4359C455.042 82.4359 444.144 76.3946 444.144 63.6011C444.144 49.7415 455.042 45.1217 463.808 45.1217C471.389 45.1217 478.141 47.6093 481.577 51.8738V46.1878C481.577 41.2126 477.312 37.7773 469.968 37.7773C464.282 37.7773 458.596 40.028 453.976 43.9371L447.224 31.2621C454.568 24.9838 464.4 22.3778 473.166 22.3778C486.907 22.3778 499.819 27.4714 499.819 45.2401V81.0144ZM471.389 70.4717C475.417 70.4717 479.681 69.0502 481.577 66.3256V61.2319C479.681 58.5074 475.417 57.2044 471.389 57.2044C466.651 57.2044 462.268 59.3366 462.268 63.838C462.268 68.3394 466.651 70.4717 471.389 70.4717Z"
        fill="white" />
    <mask id="mask0_170_1206" style="mask-type:alpha" maskUnits="userSpaceOnUse" x="0" y="0"
        width="500" height="83">
        <path
            d="M42.4504 82.4359C18.285 82.4359 0.160889 65.6149 0.160889 41.5679C0.160889 17.521 18.285 0.699951 42.4504 0.699951C66.6158 0.699951 84.6214 17.521 84.6214 41.5679C84.6214 65.6149 66.6158 82.4359 42.4504 82.4359ZM42.4504 64.4303C55.4807 64.4303 63.8913 54.3614 63.8913 41.5679C63.8913 28.656 55.4807 18.7056 42.4504 18.7056C29.42 18.7056 20.891 28.656 20.891 41.5679C20.891 54.3614 29.42 64.4303 42.4504 64.4303Z"
            fill="white" />
        <path
            d="M151.269 81.0144H133.026V74.1439C129.473 78.1714 122.957 82.4359 113.244 82.4359C100.332 82.4359 94.409 74.9731 94.409 64.5488V23.7992H112.651V56.9675C112.651 63.9565 116.205 66.3256 122.128 66.3256C127.34 66.3256 130.894 63.4826 133.026 60.7581V23.7992H151.269V81.0144Z"
            fill="white" />
        <path
            d="M182.755 81.0144H164.512V23.7992H182.755V30.7883C186.545 26.1684 193.89 22.2593 200.642 22.2593V39.7911C199.576 39.4357 198.036 39.3172 196.14 39.3172C191.402 39.3172 185.124 41.331 182.755 44.5294V81.0144Z"
            fill="white" />
        <path
            d="M299.199 81.0144H281.075V46.1878C281.075 41.8048 278.942 38.488 273.493 38.488C268.518 38.488 264.964 41.6864 263.187 44.0555V81.0144H244.945V46.1878C244.945 41.8048 242.931 38.488 237.482 38.488C232.507 38.488 229.072 41.6864 227.176 44.0555V81.0144H208.934V23.7992H227.176V30.7883C229.664 27.4714 237.008 22.3778 246.011 22.3778C254.303 22.3778 259.871 25.813 262.24 32.5651C265.557 27.5899 273.019 22.3778 282.022 22.3778C292.565 22.3778 299.199 27.8268 299.199 39.5541V81.0144Z"
            fill="white" />
        <path
            d="M364.587 81.0144H346.345V75.3284C342.791 79.5929 335.921 82.4359 328.576 82.4359C319.81 82.4359 308.912 76.3946 308.912 63.6011C308.912 49.7415 319.81 45.1217 328.576 45.1217C336.158 45.1217 342.91 47.6093 346.345 51.8738V46.1878C346.345 41.2126 342.08 37.7773 334.736 37.7773C329.05 37.7773 323.364 40.028 318.744 43.9371L311.992 31.2621C319.337 24.9838 329.169 22.3778 337.934 22.3778C351.676 22.3778 364.587 27.4714 364.587 45.2401V81.0144ZM336.158 70.4717C340.185 70.4717 344.45 69.0502 346.345 66.3256V61.2319C344.45 58.5074 340.185 57.2044 336.158 57.2044C331.419 57.2044 327.036 59.3366 327.036 63.838C327.036 68.3394 331.419 70.4717 336.158 70.4717Z"
            fill="white" />
        <path
            d="M434.452 81.0144H416.328V74.3808C411.589 79.8298 405.785 82.4359 399.388 82.4359C385.292 82.4359 374.157 71.7747 374.157 52.3476C374.157 33.6313 385.055 22.3778 399.388 22.3778C405.666 22.3778 411.826 24.8654 416.328 30.5513V2.00299H434.452V81.0144ZM405.311 66.3256C409.22 66.3256 413.958 64.1934 416.328 61.1135V43.5817C413.958 40.5018 409.22 38.488 405.311 38.488C398.085 38.488 392.755 43.8186 392.755 52.3476C392.755 60.8766 398.085 66.3256 405.311 66.3256Z"
            fill="white" />
        <path
            d="M499.819 81.0144H481.577V75.3284C478.023 79.5929 471.152 82.4359 463.808 82.4359C455.042 82.4359 444.144 76.3946 444.144 63.6011C444.144 49.7415 455.042 45.1217 463.808 45.1217C471.389 45.1217 478.141 47.6093 481.577 51.8738V46.1878C481.577 41.2126 477.312 37.7773 469.968 37.7773C464.282 37.7773 458.596 40.028 453.976 43.9371L447.224 31.2621C454.568 24.9838 464.4 22.3778 473.166 22.3778C486.907 22.3778 499.819 27.4714 499.819 45.2401V81.0144ZM471.389 70.4717C475.417 70.4717 479.681 69.0502 481.577 66.3256V61.2319C479.681 58.5074 475.417 57.2044 471.389 57.2044C466.651 57.2044 462.268 59.3366 462.268 63.838C462.268 68.3394 466.651 70.4717 471.389 70.4717Z"
            fill="white" />
    </mask>
    <g mask="url(#mask0_170_1206)">
        <path
            d="M638.901 27.3696C61.9631 118.896 57.0816 12.2632 -189.513 -17.9496L-226.835 137.557L651.111 148.22C676.584 92.8304 709.805 -8.88575 638.901 27.3696Z"
            fill="#D6EFFF" />
    </g>
</svg>