<svg width="24" height="25" viewBox="0 0 24 25" fill="none" xmlns="http://www.w3.org/2000/svg">
<path d="M18.6667 5.86007V8.52673H5.33333V5.86007H18.6667ZM18.6667 4.52673H5.33333C4.97971 4.52673 4.64057 4.66721 4.39052 4.91726C4.14048 5.16731 4 5.50644 4 5.86007V8.52673C4 8.88036 4.14048 9.21949 4.39052 9.46954C4.64057 9.71959 4.97971 9.86007 5.33333 9.86007H18.6667C19.0203 9.86007 19.3594 9.71959 19.6095 9.46954C19.8595 9.21949 20 8.88036 20 8.52673V5.86007C20 5.50644 19.8595 5.16731 19.6095 4.91726C19.3594 4.66721 19.0203 4.52673 18.6667 4.52673ZM8 12.5267V19.1934H5.33333V12.5267H8ZM8 11.1934H5.33333C4.97971 11.1934 4.64057 11.3339 4.39052 11.5839C4.14048 11.834 4 12.1731 4 12.5267V19.1934C4 19.547 4.14048 19.8862 4.39052 20.1362C4.64057 20.3863 4.97971 20.5267 5.33333 20.5267H8C8.35362 20.5267 8.69276 20.3863 8.94281 20.1362C9.19286 19.8862 9.33333 19.547 9.33333 19.1934V12.5267C9.33333 12.1731 9.19286 11.834 8.94281 11.5839C8.69276 11.3339 8.35362 11.1934 8 11.1934ZM18.6667 12.5267V19.1934H12V12.5267H18.6667ZM18.6667 11.1934H12C11.6464 11.1934 11.3072 11.3339 11.0572 11.5839C10.8071 11.834 10.6667 12.1731 10.6667 12.5267V19.1934C10.6667 19.547 10.8071 19.8862 11.0572 20.1362C11.3072 20.3863 11.6464 20.5267 12 20.5267H18.6667C19.0203 20.5267 19.3594 20.3863 19.6095 20.1362C19.8595 19.8862 20 19.547 20 19.1934V12.5267C20 12.1731 19.8595 11.834 19.6095 11.5839C19.3594 11.3339 19.0203 11.1934 18.6667 11.1934Z" fill="white"/>
</svg>
