<svg width="60" height="53" viewBox="0 0 60 53" fill="none" xmlns="http://www.w3.org/2000/svg">
<rect width="59.2184" height="52.0566" rx="10" fill="white"/>
<path d="M18.2555 12.8882L12.3132 18.7085L19.5771 23.5066C19.1652 19.9684 18.7361 16.4302 18.2555 12.8882ZM32.0211 13.5822L29.4293 13.7331H29.4207L29.5409 15.5022C30.5879 15.4721 31.6692 15.6229 32.7677 15.9624L33.2569 15.9323L32.0211 13.5822ZM28.3737 13.7784L25.8077 13.9217L24.9838 16.4226L25.5073 16.3849C26.4771 15.9323 27.4726 15.6607 28.4939 15.5475L28.3909 13.7784H28.3737ZM33.5487 16.7998L29.6353 17.0337H29.6267L29.97 22.1788C32.2099 22.0808 34.467 22.3524 36.7498 22.9483L33.5487 16.7998ZM28.5454 17.0714L24.7778 17.2978L23.5249 20.836L26.6916 22.541C27.4125 22.3976 28.1334 22.292 28.8543 22.2316L28.5539 17.0714H28.5454ZM11.976 19.8024L9.09753 34.3476L20.4181 34.6494C20.0749 31.428 20.0577 28.2066 19.6887 24.9928C17.1055 23.3029 14.5386 21.5376 11.976 19.8024ZM21.8256 21.0849L22.0058 34.5664L29.5838 34.6494L28.717 24.9476L21.8256 21.0849ZM34.2181 23.6047L35.7543 25.8378L42.8603 31.9259L48.9535 31.6392L34.2181 23.6047ZM32.1584 24.344L32.6476 26.2451L37.136 33.563L43.1521 33.7592L32.1584 24.344ZM30.1502 24.6005L31.2401 35.1096L35.7972 34.4909L30.1502 24.6005ZM50.0778 32.6803L38.8267 35.7659L38.7151 36.9579L50.1207 33.7592L50.0778 32.6803ZM37.6939 35.7206L36.3036 35.7433L36.0203 36.4298C27.4383 37.0258 19.6372 37.2672 11.2465 37.1767L12.3639 38.1876C12.8882 38.4667 14.0623 38.5044 14.1601 39.1683H37.0588C37.3763 38.165 37.5136 36.724 37.6939 35.7206Z" fill="#2F80ED"/>
</svg>
