<svg width="21" height="21" viewBox="0 0 21 21" fill="none" xmlns="http://www.w3.org/2000/svg">
    <path
        d="M18.9009 11.1868C18.7406 11.0043 18.6521 10.7697 18.6521 10.5268C18.6521 10.2838 18.7406 10.0492 18.9009 9.86675L20.1809 8.42675C20.3219 8.26942 20.4095 8.07145 20.4311 7.86126C20.4526 7.65106 20.407 7.43944 20.3009 7.25675L18.3009 3.79675C18.1958 3.61427 18.0358 3.46963 17.8436 3.38344C17.6515 3.29725 17.437 3.27391 17.2309 3.31675L15.3509 3.69675C15.1117 3.74618 14.8626 3.70634 14.6508 3.58475C14.4389 3.46316 14.2789 3.26823 14.2009 3.03675L13.5909 1.20675C13.5238 1.00813 13.396 0.835616 13.2255 0.713593C13.055 0.59157 12.8505 0.526209 12.6409 0.526751H8.64087C8.42281 0.515369 8.20701 0.575677 8.02644 0.698465C7.84587 0.821252 7.71045 0.99977 7.64087 1.20675L7.08087 3.03675C7.00287 3.26823 6.84284 3.46316 6.63099 3.58475C6.41913 3.70634 6.17009 3.74618 5.93087 3.69675L4.00087 3.31675C3.80542 3.28913 3.60617 3.31997 3.42822 3.40539C3.25027 3.49081 3.10157 3.62698 3.00087 3.79675L1.00087 7.25675C0.892033 7.4374 0.843095 7.64784 0.861055 7.85797C0.879016 8.06811 0.962955 8.26719 1.10087 8.42675L2.37087 9.86675C2.53119 10.0492 2.61961 10.2838 2.61961 10.5268C2.61961 10.7697 2.53119 11.0043 2.37087 11.1868L1.10087 12.6268C0.962955 12.7863 0.879016 12.9854 0.861055 13.1955C0.843095 13.4057 0.892033 13.6161 1.00087 13.7968L3.00087 17.2568C3.10597 17.4392 3.26599 17.5839 3.45812 17.6701C3.65026 17.7563 3.8647 17.7796 4.07087 17.7367L5.95087 17.3568C6.19009 17.3073 6.43913 17.3472 6.65099 17.4688C6.86284 17.5903 7.02287 17.7853 7.10087 18.0168L7.71087 19.8468C7.78045 20.0537 7.91587 20.2322 8.09644 20.355C8.27701 20.4778 8.49281 20.5381 8.71087 20.5268H12.7109C12.9205 20.5273 13.125 20.4619 13.2955 20.3399C13.466 20.2179 13.5938 20.0454 13.6609 19.8468L14.2709 18.0168C14.3489 17.7853 14.5089 17.5903 14.7208 17.4688C14.9326 17.3472 15.1817 17.3073 15.4209 17.3568L17.3009 17.7367C17.507 17.7796 17.7215 17.7563 17.9136 17.6701C18.1058 17.5839 18.2658 17.4392 18.3709 17.2568L20.3709 13.7968C20.477 13.6141 20.5226 13.4024 20.5011 13.1922C20.4795 12.982 20.3919 12.7841 20.2509 12.6268L18.9009 11.1868ZM17.4109 12.5268L18.2109 13.4268L16.9309 15.6468L15.7509 15.4067C15.0307 15.2595 14.2814 15.3819 13.6455 15.7506C13.0095 16.1192 12.531 16.7086 12.3009 17.4067L11.9209 18.5268H9.36087L9.00087 17.3868C8.77073 16.6886 8.29225 16.0992 7.65628 15.7306C7.0203 15.3619 6.27109 15.2395 5.55087 15.3868L4.37087 15.6268L3.07087 13.4168L3.87087 12.5168C4.36283 11.9667 4.6348 11.2547 4.6348 10.5168C4.6348 9.77882 4.36283 9.06677 3.87087 8.51675L3.07087 7.61675L4.35087 5.41675L5.53087 5.65675C6.25109 5.80397 7.0003 5.68163 7.63628 5.31295C8.27225 4.94427 8.75073 4.35491 8.98087 3.65675L9.36087 2.52675H11.9209L12.3009 3.66675C12.531 4.36491 13.0095 4.95427 13.6455 5.32295C14.2814 5.69163 15.0307 5.81397 15.7509 5.66675L16.9309 5.42675L18.2109 7.64675L17.4109 8.54675C16.9244 9.09551 16.6558 9.80343 16.6558 10.5368C16.6558 11.2701 16.9244 11.978 17.4109 12.5268ZM10.6409 6.52675C9.84975 6.52675 9.07639 6.76135 8.41859 7.20087C7.76079 7.6404 7.24811 8.26511 6.94535 8.99602C6.6426 9.72692 6.56339 10.5312 6.71773 11.3071C6.87207 12.083 7.25304 12.7958 7.81245 13.3552C8.37186 13.9146 9.08459 14.2956 9.86051 14.4499C10.6364 14.6042 11.4407 14.525 12.1716 14.2223C12.9025 13.9195 13.5272 13.4068 13.9668 12.749C14.4063 12.0912 14.6409 11.3179 14.6409 10.5268C14.6409 9.46588 14.2194 8.44847 13.4693 7.69832C12.7192 6.94818 11.7017 6.52675 10.6409 6.52675ZM10.6409 12.5268C10.2453 12.5268 9.85863 12.4095 9.52973 12.1897C9.20083 11.9699 8.94449 11.6576 8.79311 11.2921C8.64174 10.9267 8.60213 10.5245 8.6793 10.1366C8.75647 9.74861 8.94695 9.39224 9.22666 9.11254C9.50636 8.83283 9.86273 8.64235 10.2507 8.56518C10.6387 8.48801 11.0408 8.52762 11.4062 8.67899C11.7717 8.83037 12.084 9.08671 12.3038 9.41561C12.5236 9.74451 12.6409 10.1312 12.6409 10.5268C12.6409 11.0572 12.4302 11.5659 12.0551 11.941C11.68 12.316 11.1713 12.5268 10.6409 12.5268Z"
        fill="white" />
</svg>